PathFileType	4	(X/Y/Z)	29_1_29_p1_0-231_filt_butterworth.trc
DataRate	CameraRate	NumFrames	NumMarkers	Units	OrigDataRate	OrigDataStartFrame	OrigNumFrames
59.0	59.0	5	27	m	59.0	86	231
Frame#	Time	RHip			RKnee			RAnkle			RBigToe			RSmallToe			RHeel			LHip			LKnee			LAnkle			LBigToe			LSmallToe			LHeel			Neck			Head			Nose			RShoulder			RElbow			RWrist			RThumb			RIndex			RPinky			LShoulder			LElbow			LWrist			LThumb			LIndex			LPinky			
		X1	Y1	Z1	X2	Y2	Z2	X3	Y3	Z3	X4	Y4	Z4	X5	Y5	Z5	X6	Y6	Z6	X7	Y7	Z7	X8	Y8	Z8	X9	Y9	Z9	X10	Y10	Z10	X11	Y11	Z11	X12	Y12	Z12	X13	Y13	Z13	X14	Y14	Z14	X15	Y15	Z15	X16	Y16	Z16	X17	Y17	Z17	X18	Y18	Z18	X19	Y19	Z19	X20	Y20	Z20	X21	Y21	Z21	X22	Y22	Z22	X23	Y23	Z23	X24	Y24	Z24	X25	Y25	Z25	X26	Y26	Z26	X27	Y27	Z27	
86	1.4576271186440677	0.35961291211052027	0.6170967227786268	0.9824774127253888	0.3362713126021193	0.5331698971273873	1.3555100374543	0.2873456043645461	0.7128640584130183	1.7140208952109814	0.29067613216044913	0.5444942254164319	1.732754715358019	0.34756217448295357	0.5854570949972805	1.740086155853684	0.2640003486632607	0.8289994881182395	1.782724830910303	0.12411245826619352	0.5995653214858231	0.9695373911310321	0.11675593551500138	0.5290203355792725	1.34754048534948	0.10554713045427738	0.7678670764180855	1.736012743252416	0.1320697930004502	0.5509507988114245	1.7258445927466024	0.08707119151675094	0.597402383682733	1.7332566629618527	0.11722796063920823	0.8227336790688001	1.7782097127494652	0.2720556337169535	0.5003983826694657	0.4008021115917848	0.30497021642799804	0.4048234653558773	0.17176343234098052	0.2825296593943625	0.34584330508904815	0.29342031468055674	0.419039458461652	0.4783779340783281	0.4838588996532177	0.6062270238368759	0.47417048214563695	0.6494247829531475	0.5237579102610768	0.3514846979457814	0.4990752764153455	0.46957452063920113	0.38489806905599666	0.4083739898854365	0.4863614979054498	0.37674596074150174	0.3732836156881507	0.5004517886377702	0.31588826751052923	0.42711679034328254	0.12241507543166746	0.47400439911087916	0.46914219769156806	-0.07255232092126232	0.39739963613726487	0.6100939076647769	0.037292015295483476	0.36274483448688477	0.4506554208782612	0.08776587947888283	0.3743656520395518	0.3841081886125697	0.0810041592737977	0.33258010963278434	0.3439888237538197	0.06812624046587307	0.3105311744039515	0.35877031615947896
87	1.4745762711864407	0.3596318068737038	0.6159932974505451	0.9767697121871466	0.3352356578498581	0.5351880252550716	1.353066313616712	0.2873754541016619	0.7129492886083327	1.7139003835726898	0.2907774381760657	0.5467385247003713	1.7330671939779463	0.34822378605464277	0.5853082670143044	1.7396072519719414	0.2637537494151998	0.823361467817297	1.7807302602772177	0.12424821848775938	0.5962711661179099	0.9642474002786443	0.11683865242198613	0.532783498867607	1.3467266394624557	0.10544122444079843	0.7669533449343275	1.7342202537735394	0.1330401520838052	0.5509340956276844	1.725956889840289	0.09021715227405096	0.5888018563085852	1.7291186021092162	0.11598484354386626	0.822464107052234	1.7789046706506277	0.27220189626946534	0.49658772799576845	0.3958950869801926	0.3046783554625083	0.40342496586698556	0.16967060353161328	0.28245875787356794	0.3491104345279066	0.2896722547098481	0.4201746091533573	0.4816445142494444	0.4811150281726647	0.6111637665656771	0.4637483473374773	0.6240231173120906	0.5283259409205774	0.337231223023408	0.47579247139351927	0.47043975799129145	0.38407104801761416	0.392593765580534	0.48560325420536554	0.3725163735390817	0.35591756519892404	0.5014751148304066	0.32170647932541074	0.40085302668456774	0.12216234832834934	0.4720244088398027	0.4644578338465579	-0.07657409320552216	0.3833739692265308	0.5849175881452611	0.038624792989469206	0.34789224998348967	0.4279347785695834	0.0881511374600639	0.3670411811137959	0.3620633824393754	0.08281118610299744	0.3323684478799348	0.32409471305601434	0.06819941903384827	0.31277024134743525	0.33573482475552635
88	1.4915254237288136	0.35966664218322697	0.6152308587484352	0.9718056406805939	0.33375517183404235	0.5380341727655675	1.3493872268932043	0.2874307291604652	0.7129577943979238	1.7138000310147463	0.2909361657644602	0.552063341635481	1.735149267505032	0.34855558457772673	0.5854032226629553	1.7390206336854181	0.26388987736930153	0.8194505921363886	1.7791956628694798	0.12423225827806578	0.5926111788120545	0.9600604797700782	0.11708055038196696	0.5337200492663301	1.3450014022623071	0.1052612544389996	0.765869345218935	1.7318669261000097	0.13494196251552423	0.5506543789315061	1.7259437289555157	0.09338285488901871	0.5790620636253369	1.7245419681216907	0.11409721216750217	0.8234217061270517	1.781092872441979	0.27199276819361107	0.4961758781917269	0.3890868574248758	0.30479391790346905	0.4017043476743531	0.16639680944704321	0.2831566332113806	0.3505827973707646	0.2849446849404778	0.4219989644915415	0.4855096274256295	0.4762234758878924	0.6169827452632145	0.45406440501337714	0.5977003085804098	0.5306504232184418	0.32966718470641704	0.45001970682005	0.47104114549287246	0.38277867481099187	0.37343693336416495	0.48496994726826814	0.3661190726149922	0.3339876731795861	0.5018004871524365	0.33307266492014603	0.3703939917412989	0.12229131427649187	0.4694265948615089	0.4568092386344958	-0.07724309716449622	0.37315183518106887	0.5599135917748818	0.04147859512792929	0.3319483024873762	0.40526348527318606	0.08848026194488093	0.3595531937464711	0.3406242256741255	0.08475938684255938	0.3321348873746167	0.3004274665870264	0.06734733319406225	0.3133349721542339	0.3101179940763149
89	1.5084745762711864	0.3597684535746379	0.6135046690989616	0.9669008074712095	0.3324573996000737	0.5412776568594122	1.3459772114623059	0.2874767355806423	0.7130380811614108	1.7137558953870595	0.2911649220618928	0.5579261113866367	1.737634678053321	0.3485923045121794	0.5855750754261597	1.7377703114403502	0.26407414159601106	0.8180503402015346	1.777931813648367	0.1242825868652946	0.5898375914134192	0.9561733967223118	0.11750849645982317	0.5326474323257906	1.342220691495962	0.10515305906132955	0.7651076514636446	1.7304064039105655	0.13711176447150727	0.550309194909384	1.7259448825743167	0.09558398791797762	0.5720035765738167	1.7216391640322186	0.11237141112050428	0.8266309472349156	1.7840582180450915	0.2717798623009918	0.4983696663700543	0.38026645671685855	0.3047318818971967	0.40005401607623575	0.1613198774407216	0.2837266473781353	0.35041739734552174	0.2793097585876145	0.42377848565569887	0.4873251619685829	0.4672795927584148	0.6223273603032873	0.4452414993794951	0.5717575029848904	0.5318588758518576	0.3274123287464487	0.42269070269848635	0.4714356193951187	0.3798891328830727	0.3516729995334631	0.4844777263137645	0.3603681581069267	0.30901838645985413	0.5025564227843025	0.3426491792731558	0.3400263410158148	0.12266170960247157	0.4679714522300934	0.44626664459515103	-0.07613048528929764	0.36541163662988574	0.5347409818351965	0.043917710551599785	0.32150956572299927	0.3806082693071183	0.08957093168813872	0.35544621874106264	0.318018638294852	0.08661478995444359	0.331870101970549	0.2741856772625665	0.06671762017820661	0.3115083185992479	0.2824033680717547
90	1.5254237288135593	0.35998933191936033	0.6087080576075772	0.9613986695343147	0.33134436291576264	0.5450914051995046	1.3443799849797646	0.28746305678986644	0.7133822414763975	1.7138647922044716	0.2917858021769694	0.5586376723085267	1.7375852992078809	0.34862998308631626	0.5855027391962293	1.7362164826418953	0.2647135188939078	0.8182083464207707	1.77866994089578	0.12486432899192951	0.5864481461633584	0.9509908936413193	0.11805999452315798	0.5311073043375736	1.3385898357178214	0.10513758334329187	0.7650025064524294	1.731477050428881	0.13857317631174107	0.550127196420487	1.7261027534992044	0.09716809827101944	0.5669745964439723	1.7204832955779534	0.11145742468702205	0.8318123465499101	1.7876269681168493	0.27167581270671814	0.4992826217776195	0.370125376494228	0.30407801886230024	0.40022730633295106	0.1534848777186926	0.2838267558485117	0.3491833172240303	0.27330635318327096	0.4243083243343981	0.4848508175162088	0.45405635108459513	0.6261969997515263	0.4345046775902415	0.5453419692709286	0.533579955659175	0.3289185247058413	0.39491638131257556	0.47178983931965734	0.37578473002604657	0.3280301696115855	0.4841565870689246	0.35754609203198423	0.28279317016089706	0.5049300692991817	0.3471012636885415	0.31159998591507615	0.12323493479880428	0.4691049531470777	0.4346837470471066	-0.07368659498657087	0.35747012595531213	0.5085631987420497	0.04538111482221754	0.31697683481797123	0.35502921599881576	0.09201672692663976	0.3525964990220744	0.29252165846409695	0.08837079546569582	0.3292327831176203	0.24803893126993204	0.06744274858697216	0.30552585258180504	0.25526985674590347
